<svg xmlns="http://www.w3.org/2000/svg" viewBox="0 0 650 428">
  <defs>
    <linearGradient id="oxGrad" x1="0%" y1="0%" x2="100%" y2="0%">
      <stop offset="0%" style="stop-color:#7a5cff"/>
      <stop offset="100%" style="stop-color:#4acdff"/>
    </linearGradient>
    <linearGradient id="grayGrad" x1="0%" y1="0%" x2="100%" y2="0%">
      <stop offset="0%" style="stop-color:#4f607b"/>
      <stop offset="100%" style="stop-color:#8190b0"/>
    </linearGradient>
  </defs>

  <style>
    .title { font: bold 14px IBM Plex Sans, system-ui, sans-serif; fill: #131a30; }
    .label { font: 12px IBM Plex Sans, system-ui, sans-serif; fill: #4f607b; }
    .value { font: bold 11px IBM Plex Sans, system-ui, sans-serif; fill: #131a30; }
    .unit { font: 10px IBM Plex Sans, system-ui, sans-serif; fill: #8190b0; }
    .ratio { font: bold 10px IBM Plex Sans, system-ui, sans-serif; fill: #364462; }
  </style>

  <rect width="650" height="428" fill="#f5f7fb" rx="8"/>

  <text x="325" y="24" text-anchor="middle" class="title">Parse + Render Speed (Huge 1.02 MB)</text>

  <text x="120" y="56" text-anchor="end" class="label">ox-content (native)</text>
  <rect x="130" y="42" width="300" height="20" rx="4" fill="url(#oxGrad)"/>
  <text x="540" y="56" text-anchor="end" class="value">251</text>
  <text x="545" y="56" class="unit">ops/s</text>
  <text x="636" y="56" text-anchor="end" class="ratio">1.00x</text>

  <text x="120" y="86" text-anchor="end" class="label">pulldown-cmark + push_html</text>
  <rect x="130" y="72" width="264" height="20" rx="4" fill="url(#grayGrad)"/>
  <text x="540" y="86" text-anchor="end" class="value">221</text>
  <text x="545" y="86" class="unit">ops/s</text>
  <text x="636" y="86" text-anchor="end" class="ratio">1.13x</text>

  <text x="120" y="116" text-anchor="end" class="label">@ox-content/napi</text>
  <rect x="130" y="102" width="243" height="20" rx="4" fill="url(#oxGrad)"/>
  <text x="540" y="116" text-anchor="end" class="value">203</text>
  <text x="545" y="116" class="unit">ops/s</text>
  <text x="636" y="116" text-anchor="end" class="ratio">1.24x</text>

  <text x="120" y="146" text-anchor="end" class="label">Bun.markdown.html</text>
  <rect x="130" y="132" width="223" height="20" rx="4" fill="url(#grayGrad)"/>
  <text x="540" y="146" text-anchor="end" class="value">186</text>
  <text x="545" y="146" class="unit">ops/s</text>
  <text x="636" y="146" text-anchor="end" class="ratio">1.35x</text>

  <text x="120" y="176" text-anchor="end" class="label">md4x (napi)</text>
  <rect x="130" y="162" width="211" height="20" rx="4" fill="url(#grayGrad)"/>
  <text x="540" y="176" text-anchor="end" class="value">176</text>
  <text x="545" y="176" class="unit">ops/s</text>
  <text x="636" y="176" text-anchor="end" class="ratio">1.42x</text>

  <text x="120" y="206" text-anchor="end" class="label">md4w (md4c)</text>
  <rect x="130" y="192" width="125" height="20" rx="4" fill="url(#grayGrad)"/>
  <text x="540" y="206" text-anchor="end" class="value">105</text>
  <text x="545" y="206" class="unit">ops/s</text>
  <text x="636" y="206" text-anchor="end" class="ratio">2.40x</text>

  <text x="120" y="236" text-anchor="end" class="label">satteri</text>
  <rect x="130" y="222" width="67" height="20" rx="4" fill="url(#grayGrad)"/>
  <text x="540" y="236" text-anchor="end" class="value">56</text>
  <text x="545" y="236" class="unit">ops/s</text>
  <text x="636" y="236" text-anchor="end" class="ratio">4.50x</text>

  <text x="120" y="266" text-anchor="end" class="label">markdown-it</text>
  <rect x="130" y="252" width="18" height="20" rx="4" fill="url(#grayGrad)"/>
  <text x="540" y="266" text-anchor="end" class="value">15</text>
  <text x="545" y="266" class="unit">ops/s</text>
  <text x="636" y="266" text-anchor="end" class="ratio">16.55x</text>

  <text x="120" y="296" text-anchor="end" class="label">marked</text>
  <rect x="130" y="282" width="16" height="20" rx="4" fill="url(#grayGrad)"/>
  <text x="540" y="296" text-anchor="end" class="value">14</text>
  <text x="545" y="296" class="unit">ops/s</text>
  <text x="636" y="296" text-anchor="end" class="ratio">18.40x</text>

  <text x="120" y="326" text-anchor="end" class="label">@mizchi/markdown</text>
  <rect x="130" y="312" width="13" height="20" rx="4" fill="url(#grayGrad)"/>
  <text x="540" y="326" text-anchor="end" class="value">11</text>
  <text x="545" y="326" class="unit">ops/s</text>
  <text x="636" y="326" text-anchor="end" class="ratio">23.46x</text>

  <text x="120" y="356" text-anchor="end" class="label">micromark</text>
  <rect x="130" y="342" width="4" height="20" rx="4" fill="url(#grayGrad)"/>
  <text x="540" y="356" text-anchor="end" class="value">1</text>
  <text x="545" y="356" class="unit">ops/s</text>
  <text x="636" y="356" text-anchor="end" class="ratio">216x</text>

  <text x="120" y="386" text-anchor="end" class="label">remark</text>
  <rect x="130" y="372" width="4" height="20" rx="4" fill="url(#grayGrad)"/>
  <text x="540" y="386" text-anchor="end" class="value">1</text>
  <text x="545" y="386" class="unit">ops/s</text>
  <text x="636" y="386" text-anchor="end" class="ratio">373x</text>

  <text x="325" y="416" text-anchor="middle" class="unit">Higher is better. Ratio shows how much slower vs ox-content.</text>
</svg>
