<svg xmlns="http://www.w3.org/2000/svg" viewBox="0 0 650 548">
  <defs>
    <linearGradient id="oxGrad" x1="0%" y1="0%" x2="100%" y2="0%">
      <stop offset="0%" style="stop-color:#7a5cff"/>
      <stop offset="100%" style="stop-color:#4acdff"/>
    </linearGradient>
    <linearGradient id="grayGrad" x1="0%" y1="0%" x2="100%" y2="0%">
      <stop offset="0%" style="stop-color:#4f607b"/>
      <stop offset="100%" style="stop-color:#8190b0"/>
    </linearGradient>
  </defs>

  <style>
    .title { font: bold 14px IBM Plex Sans, system-ui, sans-serif; fill: #131a30; }
    .label { font: 12px IBM Plex Sans, system-ui, sans-serif; fill: #4f607b; }
    .value { font: bold 11px IBM Plex Sans, system-ui, sans-serif; fill: #131a30; }
    .unit { font: 10px IBM Plex Sans, system-ui, sans-serif; fill: #8190b0; }
    .ratio { font: bold 10px IBM Plex Sans, system-ui, sans-serif; fill: #364462; }
  </style>

  <rect width="650" height="548" fill="#f5f7fb" rx="8"/>

  <text x="325" y="24" text-anchor="middle" class="title">Parse Speed (Large 48.7 KB)</text>

  <text x="120" y="56" text-anchor="end" class="label">ox-content (native)</text>
  <rect x="130" y="42" width="300" height="20" rx="4" fill="url(#oxGrad)"/>
  <text x="540" y="56" text-anchor="end" class="value">11,411</text>
  <text x="545" y="56" class="unit">ops/s</text>
  <text x="636" y="56" text-anchor="end" class="ratio">1.00x</text>

  <text x="120" y="86" text-anchor="end" class="label">@ox-content/napi</text>
  <rect x="130" y="72" width="155" height="20" rx="4" fill="url(#oxGrad)"/>
  <text x="540" y="86" text-anchor="end" class="value">5,880</text>
  <text x="545" y="86" class="unit">ops/s</text>
  <text x="636" y="86" text-anchor="end" class="ratio">1.94x</text>

  <text x="120" y="116" text-anchor="end" class="label">pulldown-cmark</text>
  <rect x="130" y="102" width="133" height="20" rx="4" fill="url(#grayGrad)"/>
  <text x="540" y="116" text-anchor="end" class="value">5,066</text>
  <text x="545" y="116" class="unit">ops/s</text>
  <text x="636" y="116" text-anchor="end" class="ratio">2.25x</text>

  <text x="120" y="146" text-anchor="end" class="label">xai-grok-markdown-core (Grok Build)</text>
  <rect x="130" y="132" width="120" height="20" rx="4" fill="url(#grayGrad)"/>
  <text x="540" y="146" text-anchor="end" class="value">4,563</text>
  <text x="545" y="146" class="unit">ops/s</text>
  <text x="636" y="146" text-anchor="end" class="ratio">2.50x</text>

  <text x="120" y="176" text-anchor="end" class="label">md4x (napi)</text>
  <rect x="130" y="162" width="37" height="20" rx="4" fill="url(#grayGrad)"/>
  <text x="540" y="176" text-anchor="end" class="value">1,400</text>
  <text x="545" y="176" class="unit">ops/s</text>
  <text x="636" y="176" text-anchor="end" class="ratio">8.15x</text>

  <text x="120" y="206" text-anchor="end" class="label">satteri</text>
  <rect x="130" y="192" width="36" height="20" rx="4" fill="url(#grayGrad)"/>
  <text x="540" y="206" text-anchor="end" class="value">1,378</text>
  <text x="545" y="206" class="unit">ops/s</text>
  <text x="636" y="206" text-anchor="end" class="ratio">8.28x</text>

  <text x="120" y="236" text-anchor="end" class="label">md4x (wasm)</text>
  <rect x="130" y="222" width="28" height="20" rx="4" fill="url(#grayGrad)"/>
  <text x="540" y="236" text-anchor="end" class="value">1,066</text>
  <text x="545" y="236" class="unit">ops/s</text>
  <text x="636" y="236" text-anchor="end" class="ratio">10.71x</text>

  <text x="120" y="266" text-anchor="end" class="label">md4w (md4c)</text>
  <rect x="130" y="252" width="28" height="20" rx="4" fill="url(#grayGrad)"/>
  <text x="540" y="266" text-anchor="end" class="value">1,060</text>
  <text x="545" y="266" class="unit">ops/s</text>
  <text x="636" y="266" text-anchor="end" class="ratio">10.76x</text>

  <text x="120" y="296" text-anchor="end" class="label">markdown-it-ts</text>
  <rect x="130" y="282" width="23" height="20" rx="4" fill="url(#grayGrad)"/>
  <text x="540" y="296" text-anchor="end" class="value">868</text>
  <text x="545" y="296" class="unit">ops/s</text>
  <text x="636" y="296" text-anchor="end" class="ratio">13.15x</text>

  <text x="120" y="326" text-anchor="end" class="label">@tanstack/markdown</text>
  <rect x="130" y="312" width="20" height="20" rx="4" fill="url(#grayGrad)"/>
  <text x="540" y="326" text-anchor="end" class="value">742</text>
  <text x="545" y="326" class="unit">ops/s</text>
  <text x="636" y="326" text-anchor="end" class="ratio">15.37x</text>

  <text x="120" y="356" text-anchor="end" class="label">@mizchi/markdown (native)</text>
  <rect x="130" y="342" width="19" height="20" rx="4" fill="url(#grayGrad)"/>
  <text x="540" y="356" text-anchor="end" class="value">708</text>
  <text x="545" y="356" class="unit">ops/s</text>
  <text x="636" y="356" text-anchor="end" class="ratio">16.11x</text>

  <text x="120" y="386" text-anchor="end" class="label">@mizchi/markdown (js)</text>
  <rect x="130" y="372" width="15" height="20" rx="4" fill="url(#grayGrad)"/>
  <text x="540" y="386" text-anchor="end" class="value">555</text>
  <text x="545" y="386" class="unit">ops/s</text>
  <text x="636" y="386" text-anchor="end" class="ratio">20.56x</text>

  <text x="120" y="416" text-anchor="end" class="label">@mizchi/markdown (wasm)</text>
  <rect x="130" y="402" width="14" height="20" rx="4" fill="url(#grayGrad)"/>
  <text x="540" y="416" text-anchor="end" class="value">551</text>
  <text x="545" y="416" class="unit">ops/s</text>
  <text x="636" y="416" text-anchor="end" class="ratio">20.70x</text>

  <text x="120" y="446" text-anchor="end" class="label">marked</text>
  <rect x="130" y="432" width="10" height="20" rx="4" fill="url(#grayGrad)"/>
  <text x="540" y="446" text-anchor="end" class="value">387</text>
  <text x="545" y="446" class="unit">ops/s</text>
  <text x="636" y="446" text-anchor="end" class="ratio">29.45x</text>

  <text x="120" y="476" text-anchor="end" class="label">markdown-it</text>
  <rect x="130" y="462" width="8" height="20" rx="4" fill="url(#grayGrad)"/>
  <text x="540" y="476" text-anchor="end" class="value">314</text>
  <text x="545" y="476" class="unit">ops/s</text>
  <text x="636" y="476" text-anchor="end" class="ratio">36.28x</text>

  <text x="120" y="506" text-anchor="end" class="label">remark</text>
  <rect x="130" y="492" width="4" height="20" rx="4" fill="url(#grayGrad)"/>
  <text x="540" y="506" text-anchor="end" class="value">31</text>
  <text x="545" y="506" class="unit">ops/s</text>
  <text x="636" y="506" text-anchor="end" class="ratio">374x</text>

  <text x="325" y="536" text-anchor="middle" class="unit">Higher is better. Ratio shows how much slower vs ox-content.</text>
</svg>
